<?xml version="1.0" encoding="UTF-8"?>
<!DOCTYPE svg PUBLIC "-//W3C//DTD SVG 1.1//EN" "http://www.w3.org/Graphics/SVG/1.1/DTD/svg11.dtd">
<svg xmlns="http://www.w3.org/2000/svg" version="1.1" width="256px" height="256px" style="shape-rendering:geometricPrecision; text-rendering:geometricPrecision; image-rendering:optimizeQuality; fill-rule:evenodd; clip-rule:evenodd" xmlns:xlink="http://www.w3.org/1999/xlink">
<g><path style="opacity:0.964" fill="#3c97d3" d="M 142.5,-0.5 C 154.167,-0.5 165.833,-0.5 177.5,-0.5C 179.521,1.03244 181.021,3.03244 182,5.5C 182.5,26.4974 182.667,47.4974 182.5,68.5C 203.503,68.3334 224.503,68.5 245.5,69C 247.939,69.7739 249.773,71.2739 251,73.5C 251.667,84.8333 251.667,96.1667 251,107.5C 250.167,109.667 248.667,111.167 246.5,112C 225.169,112.5 203.836,112.667 182.5,112.5C 182.667,133.503 182.5,154.503 182,175.5C 181.167,179 179,181.167 175.5,182C 165.167,182.667 154.833,182.667 144.5,182C 140.594,181.027 138.427,178.527 138,174.5C 137.5,153.836 137.333,133.169 137.5,112.5C 117.833,112.5 98.1667,112.5 78.5,112.5C 78.6667,156.168 78.5,199.835 78,243.5C 77.7162,247.12 75.8829,249.62 72.5,251C 61.5,251.667 50.5,251.667 39.5,251C 36.5719,249.74 34.7386,247.573 34,244.5C 33.5,200.501 33.3333,156.501 33.5,112.5C 23.8276,112.666 14.1609,112.5 4.5,112C 2.67694,111.003 1.01027,109.836 -0.5,108.5C -0.5,96.8333 -0.5,85.1667 -0.5,73.5C 0.646381,71.525 2.31305,70.025 4.5,69C 48.8321,68.5 93.1654,68.3333 137.5,68.5C 137.333,47.8306 137.5,27.164 138,6.5C 138.904,3.76664 140.404,1.43331 142.5,-0.5 Z"/></g>
<g><path style="opacity:1" fill="#6dafd2" d="M 147.5,8.5 C 155.984,7.50698 164.651,7.17364 173.5,7.5C 173.5,16.5 173.5,25.5 173.5,34.5C 164.5,34.5 155.5,34.5 146.5,34.5C 146.174,25.6506 146.507,16.9839 147.5,8.5 Z"/></g>
<g><path style="opacity:1" fill="#9ec9d2" d="M 147.5,8.5 C 155.833,8.5 164.167,8.5 172.5,8.5C 172.5,16.8333 172.5,25.1667 172.5,33.5C 164.167,33.5 155.833,33.5 147.5,33.5C 147.5,25.1667 147.5,16.8333 147.5,8.5 Z"/></g>
<g><path style="opacity:1" fill="#9ec9d2" d="M 147.5,43.5 C 155.833,43.5 164.167,43.5 172.5,43.5C 172.5,51.8333 172.5,60.1667 172.5,68.5C 172.5,60.1667 172.5,51.8333 172.5,43.5C 164.167,43.5 155.833,43.5 147.5,43.5 Z"/></g>
<g><path style="opacity:1" fill="#6cafd2" d="M 147.5,43.5 C 155.984,42.507 164.651,42.1736 173.5,42.5C 173.826,51.3494 173.493,60.0161 172.5,68.5C 172.5,60.1667 172.5,51.8333 172.5,43.5C 164.167,43.5 155.833,43.5 147.5,43.5 Z"/></g>
<g><path style="opacity:1" fill="#9ec8d3" d="M 8.5,77.5 C 16.8333,77.5 25.1667,77.5 33.5,77.5C 33.5,86.1667 33.5,94.8333 33.5,103.5C 25.1667,103.5 16.8333,103.5 8.5,103.5C 8.5,94.8333 8.5,86.1667 8.5,77.5 Z"/></g>
<g><path style="opacity:1" fill="#9ec8d3" d="M 43.5,77.5 C 51.8333,77.5 60.1667,77.5 68.5,77.5C 68.5,86.1667 68.5,94.8333 68.5,103.5C 60.1667,103.5 51.8333,103.5 43.5,103.5C 43.5,94.8333 43.5,86.1667 43.5,77.5 Z"/></g>
<g><path style="opacity:1" fill="#9dc8d3" d="M 77.5,77.5 C 86.1667,77.5 94.8333,77.5 103.5,77.5C 103.5,86.1667 103.5,94.8333 103.5,103.5C 94.8333,103.5 86.1667,103.5 77.5,103.5C 77.5,94.8333 77.5,86.1667 77.5,77.5 Z"/></g>
<g><path style="opacity:1" fill="#9dc7d3" d="M 112.5,77.5 C 121.167,77.5 129.833,77.5 138.5,77.5C 138.5,86.1667 138.5,94.8333 138.5,103.5C 129.833,103.5 121.167,103.5 112.5,103.5C 112.5,94.8333 112.5,86.1667 112.5,77.5 Z"/></g>
<g><path style="opacity:1" fill="#9dc8d3" d="M 147.5,77.5 C 155.833,77.5 164.167,77.5 172.5,77.5C 172.5,86.1667 172.5,94.8333 172.5,103.5C 164.167,103.5 155.833,103.5 147.5,103.5C 147.5,94.8333 147.5,86.1667 147.5,77.5 Z"/></g>
<g><path style="opacity:1" fill="#9ec8d3" d="M 182.5,77.5 C 190.833,77.5 199.167,77.5 207.5,77.5C 207.5,86.1667 207.5,94.8333 207.5,103.5C 199.167,103.5 190.833,103.5 182.5,103.5C 182.5,94.8333 182.5,86.1667 182.5,77.5 Z"/></g>
<g><path style="opacity:1" fill="#9ec8d3" d="M 216.5,77.5 C 225.167,77.5 233.833,77.5 242.5,77.5C 242.5,86.1667 242.5,94.8333 242.5,103.5C 233.833,103.5 225.167,103.5 216.5,103.5C 216.5,94.8333 216.5,86.1667 216.5,77.5 Z"/></g>
<g><path style="opacity:1" fill="#7ab6d3" d="M 43.5,112.5 C 43.5,120.833 43.5,129.167 43.5,137.5C 51.8333,137.5 60.1667,137.5 68.5,137.5C 68.5,129.167 68.5,120.833 68.5,112.5C 69.493,120.984 69.8264,129.651 69.5,138.5C 60.5,138.5 51.5,138.5 42.5,138.5C 42.1736,129.651 42.507,120.984 43.5,112.5 Z"/></g>
<g><path style="opacity:1" fill="#9ec9d2" d="M 43.5,112.5 C 51.8333,112.5 60.1667,112.5 68.5,112.5C 68.5,120.833 68.5,129.167 68.5,137.5C 60.1667,137.5 51.8333,137.5 43.5,137.5C 43.5,129.167 43.5,120.833 43.5,112.5 Z"/></g>
<g><path style="opacity:1" fill="#7ab6d2" d="M 147.5,112.5 C 147.5,120.833 147.5,129.167 147.5,137.5C 155.833,137.5 164.167,137.5 172.5,137.5C 172.5,129.167 172.5,120.833 172.5,112.5C 173.493,120.984 173.826,129.651 173.5,138.5C 164.5,138.5 155.5,138.5 146.5,138.5C 146.174,129.651 146.507,120.984 147.5,112.5 Z"/></g>
<g><path style="opacity:1" fill="#9ec9d2" d="M 147.5,112.5 C 155.833,112.5 164.167,112.5 172.5,112.5C 172.5,120.833 172.5,129.167 172.5,137.5C 164.167,137.5 155.833,137.5 147.5,137.5C 147.5,129.167 147.5,120.833 147.5,112.5 Z"/></g>
<g><path style="opacity:1" fill="#9ec9d2" d="M 43.5,147.5 C 51.8333,147.5 60.1667,147.5 68.5,147.5C 68.5,155.833 68.5,164.167 68.5,172.5C 60.1667,172.5 51.8333,172.5 43.5,172.5C 43.5,164.167 43.5,155.833 43.5,147.5 Z"/></g>
<g><path style="opacity:1" fill="#fe5662" d="M 255.5,180.5 C 255.5,184.833 255.5,189.167 255.5,193.5C 254.252,196.484 252.585,199.318 250.5,202C 244.921,205.956 238.921,209.123 232.5,211.5C 230.418,205.261 227.752,199.261 224.5,193.5C 221.674,187.178 218.341,181.178 214.5,175.5C 220.707,171.318 227.54,168.318 235,166.5C 244.763,167.114 251.596,171.781 255.5,180.5 Z"/></g>
<g><path style="opacity:1" fill="#6baed2" d="M 146.5,146.5 C 155.5,146.5 164.5,146.5 173.5,146.5C 173.5,155.5 173.5,164.5 173.5,173.5C 164.5,173.5 155.5,173.5 146.5,173.5C 146.5,164.5 146.5,155.5 146.5,146.5 Z"/></g>
<g><path style="opacity:1" fill="#9ec9d2" d="M 147.5,147.5 C 155.833,147.5 164.167,147.5 172.5,147.5C 172.5,155.833 172.5,164.167 172.5,172.5C 164.167,172.5 155.833,172.5 147.5,172.5C 147.5,164.167 147.5,155.833 147.5,147.5 Z"/></g>
<g><path style="opacity:1" fill="#f2d459" d="M 214.5,175.5 C 218.341,181.178 221.674,187.178 224.5,193.5C 194.706,207.897 165.039,222.564 135.5,237.5C 132.419,231.669 129.085,226.002 125.5,220.5C 154.828,204.67 184.495,189.67 214.5,175.5 Z"/></g>
<g><path style="opacity:1" fill="#71b1d3" d="M 68.5,207.5 C 68.5,199.167 68.5,190.833 68.5,182.5C 60.1667,182.5 51.8333,182.5 43.5,182.5C 43.5,190.833 43.5,199.167 43.5,207.5C 42.507,199.016 42.1736,190.349 42.5,181.5C 51.5,181.5 60.5,181.5 69.5,181.5C 69.8264,190.349 69.493,199.016 68.5,207.5 Z"/></g>
<g><path style="opacity:1" fill="#9ec9d2" d="M 68.5,207.5 C 60.1667,207.5 51.8333,207.5 43.5,207.5C 43.5,199.167 43.5,190.833 43.5,182.5C 51.8333,182.5 60.1667,182.5 68.5,182.5C 68.5,190.833 68.5,199.167 68.5,207.5 Z"/></g>
<g><path style="opacity:0.984" fill="#efc319" d="M 224.5,193.5 C 227.752,199.261 230.418,205.261 232.5,211.5C 203.833,226.167 175.167,240.833 146.5,255.5C 145.5,255.5 144.5,255.5 143.5,255.5C 141.104,249.708 138.437,244.041 135.5,238.5C 135.5,238.167 135.5,237.833 135.5,237.5C 165.039,222.564 194.706,207.897 224.5,193.5 Z"/></g>
<g><path style="opacity:1" fill="#9dc8d3" d="M 42.5,216.5 C 51.1667,216.5 59.8333,216.5 68.5,216.5C 68.5,225.167 68.5,233.833 68.5,242.5C 59.8333,242.5 51.1667,242.5 42.5,242.5C 42.5,233.833 42.5,225.167 42.5,216.5 Z"/></g>
<g><path style="opacity:1" fill="#cbb18b" d="M 125.5,220.5 C 129.085,226.002 132.419,231.669 135.5,237.5C 135.5,237.833 135.5,238.167 135.5,238.5C 123.849,243.659 112.516,249.325 101.5,255.5C 100.5,255.5 99.5,255.5 98.5,255.5C 107.148,243.524 116.148,231.857 125.5,220.5 Z"/></g>
<g><path style="opacity:1" fill="#a59077" d="M 135.5,238.5 C 138.437,244.041 141.104,249.708 143.5,255.5C 129.5,255.5 115.5,255.5 101.5,255.5C 112.516,249.325 123.849,243.659 135.5,238.5 Z"/></g>
</svg>
